<?xml version="1.0" standalone="no"?>
<!DOCTYPE svg PUBLIC "-//W3C//DTD SVG 20010904//EN"
 "http://www.w3.org/TR/2001/REC-SVG-20010904/DTD/svg10.dtd">
<svg version="1.0" xmlns="http://www.w3.org/2000/svg"
 width="300.000000pt" height="378.000000pt" viewBox="0 0 300.000000 378.000000"
 preserveAspectRatio="xMidYMid meet" stroke="#fb6796">
<metadata>
Created by potrace 1.10, written by Peter Selinger 2001-2011
</metadata>
<g transform="translate(0.000000,378.000000) scale(0.100000,-0.100000)"
fill="#ffffff" stroke="none">
<path d="M1170 3581 l-35 -8 37 -2 c73 -2 187 -30 244 -60 66 -33 164 -115
164 -137 0 -21 -9 -17 -52 22 -54 48 -145 90 -229 104 -126 21 -249 -12 -392
-106 -96 -63 -143 -78 -228 -71 -38 3 -69 2 -69 -3 0 -4 32 -16 71 -25 110
-27 205 -17 359 38 69 24 148 47 175 50 118 15 263 -33 353 -117 28 -26 59
-46 71 -46 12 0 31 -5 42 -10 33 -18 20 4 -16 28 -60 39 -42 56 23 23 51 -26
99 -77 113 -118 14 -45 5 -52 -26 -21 -30 30 -91 50 -148 47 -40 -2 -46 1 -91
49 -62 66 -157 114 -236 120 -50 4 -79 -3 -209 -47 -143 -49 -155 -51 -258
-51 -127 -1 -316 -22 -390 -45 -64 -19 -83 -40 -26 -28 39 8 103 8 393 2 170
-4 192 0 252 43 21 15 35 4 20 -15 -6 -7 -33 -24 -59 -37 -46 -24 -59 -25
-283 -30 l-235 -6 -60 -31 c-70 -37 -120 -86 -164 -164 -43 -79 -39 -91 14
-38 25 26 73 60 108 78 66 33 210 66 260 58 l31 -4 -24 19 c-21 17 -34 19
-103 13 -43 -3 -85 -9 -93 -12 -27 -10 -14 6 18 24 27 15 65 18 221 21 119 3
187 0 187 -6 0 -13 -16 -19 -74 -27 -71 -11 -91 -39 -61 -82 l15 -22 -95 -3
c-60 -2 -94 1 -92 7 2 6 10 10 18 11 26 1 59 15 59 26 0 23 -117 1 -194 -36
-73 -35 -198 -143 -226 -195 -17 -32 2 -25 41 15 91 95 190 123 464 133 183 6
204 9 247 31 52 25 77 20 39 -9 -48 -37 -117 -52 -272 -61 -85 -6 -180 -16
-212 -25 -148 -39 -254 -125 -325 -265 -46 -92 -82 -219 -81 -284 l0 -41 34
73 c40 86 125 176 201 215 60 30 183 71 191 64 3 -3 0 -21 -5 -39 -6 -18 -13
-46 -16 -61 -5 -20 -17 -33 -44 -44 -141 -59 -265 -206 -307 -363 -23 -88 -19
-215 9 -300 14 -40 27 -75 30 -78 13 -12 15 6 6 39 -15 51 -12 169 6 228 29
100 79 171 166 236 33 25 65 42 71 38 6 -3 7 -1 3 5 -23 37 -107 -5 -183 -91
-22 -26 -43 -47 -46 -47 -12 0 17 66 51 118 39 59 117 129 179 161 54 27 63
26 63 -3 0 -13 8 -30 17 -37 9 -8 14 -9 11 -4 -11 18 17 140 45 196 48 98 99
139 246 197 125 50 229 122 175 122 -13 0 -13 3 2 29 20 33 14 58 -16 69 -21
8 -20 9 10 47 17 21 33 49 36 62 6 24 24 32 24 11 0 -7 14 -42 31 -78 17 -36
37 -84 44 -108 l13 -43 -39 -24 c-46 -30 -48 -30 -65 -7 -12 16 -14 16 -28 -4
-20 -28 -105 -83 -176 -114 -140 -62 -226 -148 -261 -261 -20 -65 -25 -114
-10 -105 5 4 22 39 37 79 16 39 31 74 34 77 3 3 16 20 29 38 36 51 48 42 43
-34 -4 -56 -1 -70 17 -95 25 -34 21 -59 -15 -98 l-23 -25 6 56 c4 36 2 58 -6
62 -7 5 -11 -1 -11 -13 0 -39 -60 -146 -134 -240 -119 -152 -166 -268 -166
-412 0 -108 24 -187 106 -353 41 -82 74 -160 74 -172 0 -39 20 -37 37 3 14 31
16 63 13 178 -3 77 -4 199 -4 270 0 122 2 135 33 212 32 81 135 253 152 253
16 0 10 -16 -31 -86 -69 -118 -85 -185 -85 -359 1 -128 4 -157 21 -201 84
-207 339 -412 608 -489 123 -35 145 -31 58 10 -90 42 -192 141 -240 232 -33
63 -79 219 -68 230 3 4 25 -3 49 -15 43 -21 127 -44 127 -35 0 12 -41 40 -82
57 -24 10 -51 22 -60 27 -29 14 -68 -26 -68 -70 0 -68 51 -199 112 -288 40
-60 19 -56 -92 17 -144 95 -265 232 -305 345 -16 46 -34 225 -23 225 3 0 13
-33 23 -72 29 -121 101 -240 165 -273 45 -23 42 -5 -9 50 -63 70 -100 150
-119 260 -14 82 -14 97 2 179 37 191 58 166 61 -71 2 -166 4 -183 29 -248 26
-70 74 -147 92 -149 5 0 10 9 12 22 2 13 15 28 29 35 22 10 24 16 19 48 -11
71 -80 167 -110 156 -29 -12 -39 31 -33 137 8 119 -6 178 -47 211 -27 21 -28
24 -15 58 10 29 10 39 0 51 -22 26 -46 18 -88 -26 -54 -59 -99 -141 -134 -245
l-30 -88 6 -217 c3 -120 3 -218 0 -218 -8 0 -87 158 -112 225 -27 70 -39 151
-28 192 l7 28 13 -39 c14 -39 31 -63 39 -55 2 2 0 27 -5 54 -19 94 6 207 66
300 17 28 69 93 114 145 72 83 102 128 125 190 3 8 10 22 15 30 44 77 46 84
67 233 6 43 11 50 44 67 l38 19 5 -37 c2 -22 -1 -43 -9 -52 -45 -53 -74 -160
-43 -160 14 0 11 -22 -7 -55 -17 -32 -31 -70 -44 -124 -14 -54 14 -95 57 -84
27 6 27 10 6 -58 -30 -99 -17 -264 25 -311 26 -30 31 -20 15 30 -9 28 -15 85
-15 142 0 139 39 240 136 344 l45 48 -34 -5 c-43 -7 -45 4 -9 75 15 30 24 61
21 76 -3 18 10 46 50 107 48 73 60 84 108 104 50 21 75 21 75 2 0 -5 -16 -35
-35 -67 -19 -32 -35 -61 -35 -65 0 -4 12 -21 26 -38 24 -29 25 -34 13 -64 -17
-42 -51 -89 -117 -160 -46 -50 -52 -60 -41 -73 19 -24 50 -32 81 -23 35 10 35
0 2 -50 -31 -48 -30 -91 4 -106 17 -7 21 -15 16 -30 -13 -42 -16 -85 -5 -85 6
0 11 6 11 14 0 7 16 34 36 60 45 60 124 106 182 106 51 0 56 17 7 26 -43 8
-123 -10 -193 -44 -28 -14 -55 -22 -59 -19 -10 10 46 85 90 119 30 24 52 33
93 36 63 5 69 17 17 31 -57 16 -112 13 -173 -10 -108 -40 -134 -35 -58 11 50
31 113 108 143 175 22 50 40 145 28 145 -4 0 -19 -12 -35 -27 -15 -14 -31 -23
-35 -20 -18 18 67 124 115 144 44 18 28 33 -36 33 -52 0 -48 9 21 48 54 31
117 86 117 102 0 10 -29 40 -39 40 -4 0 -11 -4 -16 -9 -10 -10 -114 -51 -127
-51 -22 0 0 30 52 75 l59 49 126 3 c154 5 209 -9 318 -76 l34 -21 26 20 c38
30 51 25 81 -30 15 -28 47 -72 71 -98 57 -61 62 -108 15 -152 -28 -26 -30 -33
-28 -85 2 -47 8 -63 29 -86 33 -35 42 -28 22 18 -16 39 -10 83 11 83 19 0 38
-84 31 -134 -6 -40 -4 -44 55 -109 l62 -67 -27 -10 c-37 -14 -70 -13 -112 5
-19 8 -51 15 -70 15 -19 0 -48 9 -64 21 -34 24 -69 18 -69 -12 0 -25 56 -78
90 -85 47 -10 68 -26 85 -64 15 -33 16 -45 5 -88 -6 -28 -17 -57 -23 -65 -7
-8 -65 -36 -130 -61 -153 -60 -202 -62 -278 -10 -30 20 -66 42 -81 50 -36 19
-113 18 -132 -1 -17 -18 -36 -20 -36 -3 0 19 50 77 80 93 16 8 44 15 62 15 31
0 31 1 15 18 -14 13 -35 17 -100 17 -71 0 -88 -4 -128 -27 -48 -28 -133 -120
-122 -132 7 -7 49 18 76 46 39 40 127 84 127 63 0 -2 -9 -19 -20 -37 -25 -41
-25 -53 0 -76 18 -16 28 -18 67 -11 59 11 87 6 134 -27 l39 -26 -21 -30 c-40
-56 -8 -129 73 -165 21 -9 40 -25 44 -35 3 -9 17 -27 32 -39 25 -19 27 -27 27
-92 0 -40 4 -80 9 -89 13 -28 -14 -22 -50 11 -76 69 -154 209 -154 276 0 31
-19 72 -36 79 -21 8 -61 -31 -71 -71 -5 -21 -8 -59 -6 -86 2 -26 1 -47 -1 -47
-3 0 -21 24 -40 54 -19 30 -39 57 -45 60 -16 10 17 -93 47 -144 55 -97 205
-226 340 -294 69 -35 66 -18 -5 29 -97 64 -140 104 -187 173 -62 92 -85 177
-67 256 7 31 17 56 23 54 6 -2 12 -33 13 -68 6 -152 130 -307 350 -438 84 -49
145 -76 145 -63 0 6 -16 18 -35 27 -62 29 -160 133 -178 188 -22 63 -21 97 2
171 10 33 17 63 15 66 -2 4 -22 -2 -44 -13 -47 -24 -58 -19 -42 17 21 46 16
57 -22 50 -34 -7 -87 12 -102 36 -13 22 -22 79 -12 85 5 3 20 -6 33 -20 33
-35 68 -33 151 9 61 31 78 35 147 35 72 0 80 -2 102 -26 36 -38 35 -116 0
-165 -58 -78 -122 -108 -85 -39 16 31 -4 31 -25 0 -10 -15 -31 -35 -47 -45
-23 -13 -58 -69 -58 -93 0 -2 22 -2 50 2 175 23 299 173 261 314 -12 41 -11
44 33 105 77 108 116 222 116 337 0 42 -5 52 -54 106 -51 57 -54 62 -58 125
-2 46 -12 82 -30 116 -17 33 -23 55 -17 64 13 22 11 97 -5 127 -8 15 -24 36
-36 47 -25 22 -120 161 -120 176 0 5 4 9 10 9 19 0 23 72 6 133 -37 131 -152
258 -293 324 -93 43 -263 87 -249 64 4 -6 13 -11 19 -11 7 0 40 -13 74 -30 76
-36 153 -105 193 -175 29 -51 63 -168 52 -179 -10 -11 -22 -6 -22 9 0 28 -46
101 -105 166 -95 105 -204 173 -325 202 -78 19 -231 29 -280 18z m475 -156
c67 -48 136 -124 179 -199 18 -30 39 -53 57 -60 18 -6 29 -18 29 -30 0 -22 27
-56 46 -56 21 0 73 68 80 105 3 19 10 35 14 35 17 0 29 -94 18 -141 -10 -44
-13 -46 -60 -58 -47 -12 -51 -12 -118 21 -52 25 -69 37 -64 48 14 30 16 80 5
80 -7 0 -9 4 -6 10 3 5 -16 32 -43 59 -54 54 -108 76 -149 60 -32 -12 -28 -13
-59 16 -18 17 -22 25 -12 25 8 0 20 11 27 24 15 26 6 52 -33 95 l-21 23 25 -7
c14 -4 52 -27 85 -50z m-265 7 l45 -21 -60 7 c-97 11 -200 4 -263 -19 -31 -12
-73 -27 -92 -34 -19 -7 -51 -16 -70 -20 l-35 -8 30 24 c41 33 86 57 148 79 74
28 233 23 297 -8z m509 -7 c31 -15 101 -92 101 -109 0 -6 -5 -5 -12 2 -7 7
-23 12 -37 12 -21 0 -33 12 -58 55 -18 30 -30 55 -27 55 3 0 18 -7 33 -15z
m95 -169 c9 -19 16 -44 16 -55 0 -32 -38 -101 -56 -101 -9 0 -13 6 -10 13 26
64 28 86 12 136 -20 62 -20 64 3 52 10 -6 26 -26 35 -45z m-773 12 c-42 -21
-101 -87 -101 -115 0 -7 -4 -13 -8 -13 -18 0 -20 13 -5 37 12 18 13 27 4 36
-6 6 -11 14 -11 19 0 12 57 38 103 48 64 12 66 11 18 -12z m226 -21 c27 -18
65 -50 84 -70 29 -32 43 -39 99 -48 36 -5 73 -12 83 -15 34 -10 16 -21 -40
-22 -32 -2 -77 -5 -99 -8 -41 -6 -42 -5 -54 31 -15 47 -62 101 -119 137 -34
21 -40 28 -24 28 12 0 43 -15 70 -33z m-86 -21 c40 -17 145 -121 131 -129 -5
-4 -30 7 -56 23 -69 44 -123 70 -130 63 -12 -12 -6 -46 16 -89 25 -51 38 -56
38 -14 0 17 2 30 5 30 7 0 85 -39 85 -43 0 -1 -23 -27 -51 -57 -38 -41 -49
-60 -46 -78 4 -23 -16 -42 -47 -42 -13 0 -14 5 -6 26 6 14 10 43 10 65 0 26 5
42 15 45 12 5 7 15 -20 46 -18 22 -37 54 -40 70 -4 16 -12 27 -18 25 -20 -6
-19 -62 2 -118 24 -62 26 -116 7 -141 -21 -29 -35 -22 -29 15 4 25 -2 45 -27
87 -55 94 -50 169 14 210 37 23 99 26 147 6z m-281 -96 c0 -22 -54 -90 -92
-117 -36 -24 -51 -28 -114 -28 -55 0 -77 4 -90 17 -15 15 -12 16 42 15 71 -1
151 33 204 88 34 36 50 43 50 25z m320 -260 c0 -15 -82 -59 -163 -86 -63 -21
-124 -54 -183 -99 -19 -14 -29 2 -13 21 38 45 141 105 240 138 119 39 119 39
119 26z m-444 -37 c-7 -7 -152 -69 -188 -80 -13 -4 -18 0 -18 13 0 9 -7 25
-16 35 -23 25 -13 27 190 37 22 1 36 -1 32 -5z m-326 -26 c0 -2 -26 -20 -57
-40 -62 -40 -98 -88 -81 -105 14 -14 3 -42 -17 -42 -21 0 -121 -53 -172 -92
-24 -17 -45 -29 -49 -26 -8 8 31 83 73 140 46 63 101 105 181 139 56 23 122
37 122 26z m98 -25 c-10 -24 -99 -90 -133 -100 -22 -6 -50 -14 -62 -17 -38
-12 -26 12 22 45 73 50 184 96 173 72z m457 -83 c-19 -21 -35 -45 -35 -53 0
-8 -26 -32 -57 -53 -32 -22 -67 -54 -78 -71 -17 -27 -45 -43 -45 -27 0 14 35
74 71 121 38 51 154 138 171 128 5 -3 -7 -23 -27 -45z m-275 -27 c0 -4 -7 -17
-15 -30 -9 -12 -18 -45 -22 -74 -6 -59 -42 -149 -58 -144 -14 4 -6 124 12 166
21 51 83 112 83 82z m212 -145 c-25 -27 -61 -105 -62 -133 0 -11 -12 -31 -26
-45 -14 -13 -40 -45 -57 -71 -28 -45 -47 -60 -47 -39 0 26 60 176 85 211 38
55 118 127 123 111 2 -7 -5 -22 -16 -34z m1254 -284 c-3 -3 -12 0 -21 7 -14
12 -14 15 2 33 18 19 18 19 21 -8 2 -15 1 -29 -2 -32z m-129 10 c47 -6 49 -8
30 -26 -42 -40 -43 -40 -78 5 -26 32 -29 40 -14 35 10 -5 38 -11 62 -14z m103
-36 c0 -32 -44 -137 -78 -186 -50 -72 -67 -78 -59 -20 12 84 29 122 74 170 47
50 63 59 63 36z m-144 -268 c21 -12 31 -25 27 -35 -7 -18 -14 -18 -55 4 -40
21 -51 34 -35 44 18 12 27 10 63 -13z m-1192 -369 c22 -44 37 -82 34 -86 -13
-12 -50 9 -69 39 -19 31 -28 127 -11 127 4 0 25 -36 46 -80z"/>
<path d="M1760 2901 c0 -5 7 -14 16 -22 25 -20 44 -65 44 -104 l0 -35 -97 0
c-65 -1 -104 -5 -115 -14 -24 -18 -51 -83 -38 -91 6 -3 10 -1 10 4 0 18 39 51
59 51 11 0 39 -21 64 -46 37 -39 52 -48 97 -55 35 -5 57 -15 67 -29 16 -23 72
-55 81 -46 3 4 -6 19 -21 34 -15 15 -30 43 -33 62 -4 19 -12 45 -20 57 -7 11
-13 46 -13 76 1 61 -9 87 -54 135 -31 32 -47 40 -47 23z m4 -226 c13 -19 24
-24 48 -23 24 2 33 -2 36 -14 3 -14 -3 -18 -26 -18 -33 0 -92 42 -92 66 0 22
16 17 34 -11z"/>
<path d="M1970 2847 c0 -10 5 -38 11 -61 8 -31 8 -54 0 -82 -11 -40 -7 -54 10
-37 32 32 29 133 -5 178 -14 19 -15 19 -16 2z"/>
<path d="M2056 2835 c-3 -9 -1 -39 5 -67 6 -28 8 -68 5 -89 -6 -41 10 -65 18
-27 10 42 10 63 2 131 -7 65 -18 83 -30 52z"/>
<path d="M1511 2514 c-2 -90 39 -153 115 -179 38 -13 39 -13 49 -87 18 -124
79 -228 135 -228 41 0 173 29 184 40 7 7 -26 10 -91 10 -94 0 -103 2 -117 22
-22 31 -21 52 2 42 25 -11 178 -17 210 -9 21 6 9 11 -63 21 -137 21 -186 35
-195 59 -13 32 3 37 52 15 52 -23 175 -40 165 -23 -4 6 -28 16 -54 23 -44 11
-153 65 -153 76 0 18 36 68 72 98 50 43 42 44 -57 11 -83 -28 -120 -27 -174 6
-31 19 -50 52 -69 119 -10 35 -10 35 -11 -16z"/>
<path d="M677 2400 c-9 -11 -27 -37 -41 -57 -13 -21 -47 -60 -76 -88 -29 -27
-70 -74 -92 -103 -22 -30 -43 -51 -46 -47 -4 3 -2 9 4 13 23 16 88 121 80 129
-9 9 -65 -40 -96 -83 -99 -138 -123 -314 -71 -514 21 -82 59 -176 67 -168 2 3
-4 39 -16 79 -23 84 -27 225 -9 311 24 114 93 231 198 341 56 58 131 169 131
194 0 19 -13 16 -33 -7z"/>
<path d="M856 2374 c-3 -9 -6 -24 -6 -33 0 -20 -68 -117 -153 -217 -105 -124
-156 -265 -140 -387 4 -38 8 -45 19 -36 8 6 14 28 14 48 0 70 21 164 49 220
16 31 70 108 121 171 100 125 120 161 120 215 0 36 -13 47 -24 19z"/>
<path d="M1132 2326 c-48 -73 -57 -95 -83 -191 -20 -74 -27 -289 -10 -299 5
-3 12 -35 15 -70 16 -141 130 -288 184 -234 19 19 14 51 -22 129 -31 68 -43
112 -64 228 -12 68 -32 65 -32 -6 0 -98 46 -243 95 -301 18 -22 22 -33 13 -38
-15 -10 -85 68 -109 122 -24 52 -33 162 -21 236 8 54 8 56 -10 47 -16 -8 -18
-6 -19 23 -3 97 24 201 83 316 54 105 41 130 -20 38z"/>
<path d="M1253 1905 c-40 -28 -55 -136 -31 -219 8 -28 31 -60 72 -101 34 -33
70 -80 81 -105 35 -82 108 -174 180 -228 17 -12 39 -29 50 -37 19 -14 19 -15
-5 -6 -14 5 -45 21 -70 35 -25 14 -54 26 -64 26 -18 0 -18 -2 5 -26 60 -65
157 -100 305 -110 95 -7 244 2 244 15 0 5 -39 11 -87 14 -248 17 -465 161
-529 351 -12 34 -26 53 -57 73 -28 19 -52 47 -70 83 -26 50 -28 62 -24 134 4
53 10 84 21 94 15 15 16 10 16 -50 0 -87 26 -157 88 -234 27 -33 54 -74 60
-92 39 -112 161 -214 321 -266 70 -23 206 -56 234 -56 25 0 -11 19 -68 35
-189 54 -338 162 -400 290 -27 55 -55 152 -55 190 0 14 -4 25 -10 25 -14 0
-23 -46 -17 -91 3 -21 1 -39 -3 -39 -14 0 -69 75 -88 121 -11 24 -22 68 -26
97 -7 56 -23 92 -41 92 -6 0 -20 -7 -32 -15z"/>
<path d="M1180 1404 c0 -30 58 -138 102 -190 138 -162 334 -235 551 -204 90
13 108 30 32 30 -118 0 -292 72 -387 159 -58 53 -70 54 -44 2 15 -28 82 -88
124 -110 38 -20 19 -22 -34 -4 -100 33 -204 123 -257 222 -27 48 -28 54 -13
70 20 22 20 27 -1 27 -10 0 -30 3 -45 7 -22 6 -28 4 -28 -9z"/>
<path d="M1035 713 c-4 -21 -13 -65 -21 -97 -8 -32 -12 -61 -10 -64 12 -12 36
10 36 33 0 34 15 32 30 -5 8 -18 20 -30 31 -30 24 0 24 5 -3 42 l-21 31 31 28
c37 33 39 39 13 39 -11 0 -28 -12 -39 -27 -29 -39 -37 -23 -18 33 20 58 20 54
-4 54 -14 0 -21 -9 -25 -37z"/>
<path d="M2526 738 c-13 -45 -37 -180 -32 -185 14 -14 34 10 39 48 6 42 30 73
52 66 11 -4 11 -24 0 -80 -7 -35 -6 -39 11 -35 20 3 31 36 33 100 1 40 -15 51
-57 36 -22 -7 -23 -6 -16 27 5 28 3 35 -10 35 -9 0 -18 -6 -20 -12z"/>
<path d="M526 728 c-13 -43 -36 -172 -32 -176 3 -2 12 -2 20 1 9 4 17 27 21
61 8 58 25 77 25 27 0 -49 12 -91 26 -91 8 0 28 28 45 63 34 65 48 65 30 0
-14 -51 -14 -63 3 -63 10 0 18 20 26 58 6 31 15 70 21 86 13 42 12 46 -15 46
-19 0 -32 -13 -61 -65 -20 -36 -40 -63 -46 -60 -5 4 -9 33 -9 66 0 56 -1 59
-25 59 -14 0 -27 -6 -29 -12z"/>
<path d="M1486 649 c-10 -49 -16 -93 -13 -96 16 -15 37 9 37 42 0 30 3 35 24
35 25 0 36 -16 36 -56 0 -17 6 -24 20 -24 23 0 23 2 10 52 -9 32 -8 40 10 58
42 42 14 80 -59 80 l-47 0 -18 -91z m102 39 c-2 -17 -11 -24 -30 -26 -24 -3
-28 0 -28 22 0 22 4 26 31 26 26 0 30 -3 27 -22z"/>
<path d="M1326 705 c-17 -16 -24 -30 -19 -38 4 -6 8 -34 8 -62 0 -49 1 -50 29
-50 16 0 31 6 34 13 2 7 -5 12 -17 12 -22 0 -25 14 -12 60 4 15 14 25 26 25
10 0 20 6 23 13 2 6 -3 12 -12 12 -9 0 -16 8 -16 20 0 27 -11 25 -44 -5z"/>
<path d="M777 693 c-36 -9 -64 -111 -35 -129 7 -4 33 -9 59 -10 l47 -2 12 52
c7 28 14 59 17 69 4 14 -1 17 -24 16 -15 -1 -35 1 -43 3 -8 3 -23 4 -33 1z
m53 -62 c0 -31 -16 -51 -41 -51 -22 0 -31 24 -19 54 16 44 60 42 60 -3z"/>
<path d="M1204 690 c-48 -19 -71 -92 -38 -124 29 -30 103 -15 91 18 -5 13 -10
14 -25 5 -21 -13 -52 -6 -52 11 0 5 15 10 33 10 33 0 67 24 67 48 0 10 -39 43
-50 41 -3 0 -15 -4 -26 -9z m41 -30 c7 -11 -42 -37 -51 -27 -9 9 15 37 32 37
7 0 16 -4 19 -10z"/>
<path d="M1693 690 c-31 -12 -55 -54 -51 -87 4 -37 46 -61 85 -47 28 10 41 42
13 35 -52 -13 -60 -13 -60 3 0 11 9 16 29 16 57 0 84 62 35 80 -14 6 -26 10
-27 9 -1 0 -12 -4 -24 -9z m44 -37 c5 -13 -43 -30 -54 -19 -3 3 0 13 7 21 15
18 41 16 47 -2z"/>
<path d="M1822 684 c-32 -22 -28 -53 8 -67 17 -6 30 -17 30 -24 0 -15 -36 -18
-45 -3 -8 13 -35 1 -35 -16 0 -33 91 -29 110 5 14 27 3 48 -32 60 -37 13 -27
35 12 26 37 -8 49 12 15 25 -34 13 -37 13 -63 -6z"/>
<path d="M1975 690 c-32 -12 -45 -34 -47 -75 -2 -58 51 -85 98 -51 14 11 16
18 8 26 -8 8 -14 9 -18 1 -11 -17 -56 -14 -56 4 0 9 10 15 26 15 39 0 64 18
64 45 0 14 -8 29 -19 35 -23 12 -29 12 -56 0z m45 -35 c0 -15 -46 -32 -57 -21
-10 9 18 36 38 36 11 0 19 -7 19 -15z"/>
<path d="M2117 689 c-21 -12 -47 -61 -47 -88 0 -34 26 -50 77 -47 l47 2 13 60
c16 77 16 74 -9 73 -13 0 -32 2 -43 5 -11 3 -28 1 -38 -5z m52 -37 c13 -25 -9
-67 -34 -67 -26 0 -32 46 -10 69 21 21 32 20 44 -2z"/>
<path d="M2322 691 c-7 -4 -24 -6 -36 -4 -21 4 -24 -1 -34 -53 -15 -74 -15
-84 3 -84 8 0 17 14 21 38 9 52 22 72 44 72 10 0 22 5 26 11 9 15 -8 30 -24
20z"/>
<path d="M2400 687 c-28 -14 -50 -51 -50 -84 0 -49 70 -72 105 -33 17 19 17
20 -1 27 -10 4 -19 2 -22 -5 -5 -17 -39 -15 -46 3 -14 37 33 90 58 65 15 -15
36 -12 36 5 0 9 -12 20 -26 25 -30 12 -24 12 -54 -3z"/>
<path d="M911 641 c-6 -25 -13 -56 -17 -68 -5 -19 -2 -23 14 -23 16 0 22 9 27
43 8 49 20 67 45 67 10 0 20 7 23 15 5 11 -3 14 -38 13 -44 -1 -44 -1 -54 -47z"/>
<path d="M1314 355 c-6 -35 -17 -44 -29 -25 -8 13 -43 3 -67 -18 -21 -18 -25
-94 -5 -110 6 -6 32 -9 56 -8 l45 2 16 75 c9 41 20 84 24 97 6 18 4 22 -13 22
-15 0 -22 -9 -27 -35z m-20 -67 c13 -21 -18 -71 -42 -66 -12 3 -17 13 -15 37
2 49 34 65 57 29z"/>
<path d="M1540 370 c0 -13 7 -20 20 -20 13 0 20 7 20 20 0 13 -7 20 -20 20
-13 0 -20 -7 -20 -20z"/>
<path d="M1044 293 c-27 -49 -50 -91 -52 -95 -2 -5 6 -8 17 -8 14 0 25 9 31
26 9 22 15 25 47 22 31 -2 39 -7 41 -25 2 -13 10 -23 19 -23 13 0 15 10 9 63
-13 115 -16 127 -40 127 -17 0 -33 -19 -72 -87z m76 1 c0 -30 -3 -34 -25 -34
-30 0 -30 0 -8 44 19 42 33 38 33 -10z"/>
<path d="M1375 330 c-5 -9 -2 -37 11 -112 9 -48 38 -34 82 39 23 37 39 70 36
75 -10 16 -41 -11 -59 -51 -23 -53 -35 -52 -35 3 0 29 -5 46 -15 49 -8 4 -17
2 -20 -3z"/>
<path d="M1610 322 c-28 -23 -20 -59 16 -68 13 -3 24 -13 24 -21 0 -12 -8 -14
-34 -9 -39 8 -56 -8 -27 -23 33 -18 69 -13 86 13 20 30 12 49 -26 63 -38 15
-29 37 11 28 37 -8 49 12 15 25 -35 13 -39 13 -65 -8z"/>
<path d="M1765 330 c-32 -12 -47 -36 -48 -74 -1 -43 17 -66 55 -66 41 0 78 40
78 83 0 48 -41 75 -85 57z m39 -26 c32 -12 6 -87 -28 -82 -27 4 -33 49 -11 72
19 18 18 18 39 10z"/>
<path d="M1903 327 c-9 -15 -34 -130 -29 -135 13 -13 36 11 42 45 8 46 20 63
45 63 11 0 19 5 19 12 0 29 18 -11 28 -61 12 -66 8 -79 -26 -83 -30 -4 -41
-25 -17 -34 31 -12 62 14 113 101 51 85 60 105 45 105 -17 0 -31 -17 -52 -59
-25 -49 -38 -45 -43 14 l-3 40 -58 0 c-33 0 -61 -4 -64 -8z"/>
<path d="M1522 272 c-15 -74 -15 -82 2 -82 15 0 20 11 31 70 4 19 9 43 11 53
4 12 0 17 -13 17 -15 0 -22 -12 -31 -58z"/>
</g>
</svg>
