<?xml version="1.0" encoding="UTF-8"?>
<svg version="1.1" xmlns="http://www.w3.org/2000/svg" width="246" height="226">
<path d="M0 0 C12.78770021 9.66573754 19.03317204 21.39632893 22.14453125 36.953125 C22.22703125 38.025625 22.30953125 39.098125 22.39453125 40.203125 C22.471875 41.15638672 22.471875 41.15638672 22.55078125 42.12890625 C23.18718575 56.63362551 17.94271055 69.76227028 8.7578125 80.74609375 C-1.36493692 91.27040679 -13.09316365 97.07612401 -27.60546875 98.203125 C-35.07102041 98.27452773 -41.62565625 97.79082793 -48.54296875 94.890625 C-56.24986452 91.999239 -63.14049862 94.76872813 -70.60546875 97.203125 C-72.50001649 97.81131103 -74.39564005 98.41617092 -76.29296875 99.015625 C-77.01871094 99.26957031 -77.74445313 99.52351563 -78.4921875 99.78515625 C-81.15826483 100.31245805 -83.01210132 99.97296376 -85.60546875 99.203125 C-86.26546875 98.543125 -86.92546875 97.883125 -87.60546875 97.203125 C-87.18620508 91.213644 -85.31380466 85.80741839 -83.421875 80.1640625 C-80.53998231 71.55507129 -80.53998231 71.55507129 -81.91796875 62.828125 C-87.25069848 48.37104577 -86.42324115 34.73255275 -80.47265625 20.4921875 C-79.30216818 18.28298815 -78.03124057 16.25591692 -76.60546875 14.203125 C-76.11433594 13.45804688 -75.62320313 12.71296875 -75.1171875 11.9453125 C-66.5432388 -0.12778949 -54.01490025 -6.28763646 -39.85546875 -9.25390625 C-25.97944387 -11.57213637 -11.54288229 -7.96060847 0 0 Z M-17.41796875 29.265625 C-18.11148438 29.90242188 -18.805 30.53921875 -19.51953125 31.1953125 C-22.05366936 33.63453907 -24.5373913 36.1177178 -26.99609375 38.6328125 C-28.60546875 40.203125 -28.60546875 40.203125 -31.54296875 42.515625 C-32.22359375 43.0725 -32.90421875 43.629375 -33.60546875 44.203125 C-33.60546875 44.863125 -33.60546875 45.523125 -33.60546875 46.203125 C-34.92546875 46.533125 -36.24546875 46.863125 -37.60546875 47.203125 C-37.93546875 46.213125 -38.26546875 45.223125 -38.60546875 44.203125 C-41.61202215 40.79901081 -44.35336634 38.44391392 -48.85546875 37.578125 C-51.66861061 37.9893277 -51.66861061 37.9893277 -53.54296875 39.890625 C-54.97053571 42.99768251 -54.7508569 43.96086485 -53.60546875 47.203125 C-51.54013139 49.8336251 -49.192222 52.12862236 -46.79296875 54.453125 C-46.16326172 55.08992188 -45.53355469 55.72671875 -44.88476562 56.3828125 C-40.92354553 60.58542268 -40.92354553 60.58542268 -35.60546875 62.203125 C-29.56405186 59.39748119 -25.11578958 54.12245059 -20.45654297 49.47973633 C-18.85826696 47.8934023 -17.24227251 46.32669789 -15.625 44.75976562 C-14.60171964 43.74594599 -13.57954539 42.73100845 -12.55859375 41.71484375 C-11.63208008 40.80178467 -10.70556641 39.88872559 -9.75097656 38.94799805 C-7.35854267 35.88721809 -6.76504516 34.05340883 -6.60546875 30.203125 C-7.6448972 27.76066753 -7.6448972 27.76066753 -9.60546875 26.203125 C-14.03114155 26.203125 -14.37064237 26.44172784 -17.41796875 29.265625 Z " fill="#ffffff" transform="translate(209.60546875,26.796875)"/>
<path d="M0 0 C2.14189615 0.02910318 4.28132792 0.02054283 6.42333984 0.00756836 C18.46985075 0.02480253 26.03125979 2.29560331 35.01318359 10.46655273 C38.69296569 14.26384048 42.45245399 18.1441849 45.40698242 22.54052734 C47.86992695 25.9214 49.61446906 28.13717564 53.78857422 29.12011719 C57.03304313 29.29897237 60.20377678 29.27798048 63.45068359 29.15405273 C76.378835 28.79599551 76.378835 28.79599551 82.50952148 32.99316406 C85.46232432 35.88651771 85.99123898 38.23979172 86.38818359 42.34155273 C86.25016446 46.70133368 84.98204397 49.19319386 82.01318359 52.46655273 C77.06139347 55.00990521 73.40120237 55.84939147 67.75927734 55.86499023 C67.09533463 55.86786041 66.43139191 55.87073059 65.74732971 55.87368774 C64.35490049 55.87571423 62.96244188 55.87028425 61.57006836 55.85766602 C59.45214685 55.84156386 57.33612558 55.85757388 55.21826172 55.87670898 C53.85692943 55.8747268 52.49559832 55.87088362 51.13427734 55.86499023 C49.30014282 55.85991455 49.30014282 55.85991455 47.42895508 55.85473633 C40.39093599 55.05490427 36.62680273 51.4097161 32.01318359 46.46655273 C31.99860107 47.31886475 31.98401855 48.17117676 31.96899414 49.04931641 C31.90775074 52.22726448 31.8335633 55.4045782 31.75073242 58.58203125 C31.71758554 59.95431231 31.68952189 61.32672635 31.66674805 62.69921875 C31.63301593 64.6779304 31.57916869 66.6562665 31.52490234 68.63452148 C31.49871826 69.82327881 31.47253418 71.01203613 31.44555664 72.23681641 C30.97786467 75.73037774 30.10774787 77.65871308 28.01318359 80.46655273 C25.58396505 81.68116201 23.97508999 81.61936573 21.25976562 81.65942383 C20.27178986 81.67548676 19.28381409 81.69154968 18.26589966 81.70809937 C13.7505151 81.7524765 9.235278 81.79360233 4.71972656 81.81665039 C2.33551281 81.83322775 -0.04865089 81.86054079 -2.43261719 81.89868164 C-5.8650091 81.95333 -9.2962361 81.97530537 -12.72900391 81.98999023 C-14.32915848 82.02399429 -14.32915848 82.02399429 -15.9616394 82.0586853 C-23.29530135 82.03766386 -23.29530135 82.03766386 -26.65234375 79.26513672 C-28.05208716 76.32967044 -28.52051561 74.40091169 -28.59619141 71.16577148 C-28.62841797 70.18930664 -28.66064453 69.2128418 -28.69384766 68.20678711 C-28.70802734 67.19938477 -28.72220703 66.19198242 -28.73681641 65.15405273 C-28.76646484 64.12731445 -28.79611328 63.10057617 -28.82666016 62.04272461 C-28.89713835 59.51725599 -28.94994301 56.99269858 -28.98681641 54.46655273 C-29.64681641 54.46655273 -30.30681641 54.46655273 -30.98681641 54.46655273 C-31.24849609 55.1897168 -31.51017578 55.91288086 -31.77978516 56.65795898 C-33.8121919 61.38708666 -36.94365585 65.34079276 -39.98681641 69.46655273 C-40.44701172 70.0969043 -40.90720703 70.72725586 -41.38134766 71.37670898 C-43.90520498 74.63769289 -45.91400466 76.59380736 -49.98681641 77.46655273 C-54.75043946 77.21135864 -58.18601254 76.39860143 -61.98681641 73.46655273 C-64.75017281 68.92605547 -64.74420549 64.62356644 -63.98681641 59.46655273 C-62.89575195 57.14526367 -62.89575195 57.14526367 -61.43603516 54.82592773 C-60.89060059 53.95822754 -60.34516602 53.09052734 -59.78320312 52.1965332 C-56.70498373 47.51854336 -53.52543617 42.91852039 -50.29931641 38.34155273 C-48.87937213 36.31989015 -47.4601044 34.29775222 -46.04150391 32.27514648 C-45.3515332 31.29143066 -44.6615625 30.30771484 -43.95068359 29.29418945 C-42.18753763 26.75555736 -40.45656955 24.20003406 -38.74462891 21.62670898 C-38.2621167 20.90563965 -37.77960449 20.18457031 -37.2824707 19.44165039 C-36.41367066 18.13821606 -35.55238786 16.82971965 -34.70092773 15.51489258 C-26.09823828 2.67722351 -14.81875386 -0.21977687 0 0 Z " fill="#ffffff" transform="translate(73.98681640625,121.533447265625)"/>
<path d="M0 0 C5.28396109 6.29149604 7.25967443 13.10815469 7.1953125 21.20703125 C6.61074035 26.17589455 4.45638007 29.99834699 1.84375 34.1953125 C1.286875 35.1234375 0.73 36.0515625 0.15625 37.0078125 C-5.31091166 42.17945191 -12.1562213 44.92015369 -19.640625 45.33203125 C-28.39364645 44.85632356 -35.56733961 41.22833579 -41.40625 34.7578125 C-45.98183477 29.09507834 -47.19735327 23.41921146 -47.15625 16.1953125 C-46.15162256 7.69185879 -42.71030298 1.68747188 -36.15625 -3.8046875 C-24.10549645 -11.38364574 -10.16002129 -9.97596293 0 0 Z " fill="#ffffff" transform="translate(95.15625,72.8046875)"/>
</svg>
